<mxfile host="app.diagrams.net" agent="Mozilla/5.0 (Windows NT 10.0; Win64; x64) AppleWebKit/537.36 (KHTML, like Gecko) Chrome/129.0.0.0 Safari/537.36" version="28.2.3">
  <diagram name="Page-1" id="ZU5ou_c260VMI8BkDugq">
    <mxGraphModel dx="1042" dy="1670" grid="1" gridSize="10" guides="1" tooltips="1" connect="1" arrows="1" fold="1" page="1" pageScale="1" pageWidth="850" pageHeight="1100" math="0" shadow="0">
      <root>
        <mxCell id="0" />
        <mxCell id="1" parent="0" />
        <mxCell id="I4t6TPSB9CoR-OkR94B3-2" style="edgeStyle=orthogonalEdgeStyle;rounded=0;orthogonalLoop=1;jettySize=auto;html=1;" edge="1" parent="1" source="I4t6TPSB9CoR-OkR94B3-1" target="I4t6TPSB9CoR-OkR94B3-3">
          <mxGeometry relative="1" as="geometry">
            <mxPoint x="390" y="-880" as="targetPoint" />
          </mxGeometry>
        </mxCell>
        <mxCell id="I4t6TPSB9CoR-OkR94B3-1" value="bắt đầu" style="ellipse;whiteSpace=wrap;html=1;" vertex="1" parent="1">
          <mxGeometry x="320" y="-1050" width="140" height="100" as="geometry" />
        </mxCell>
        <mxCell id="I4t6TPSB9CoR-OkR94B3-4" style="edgeStyle=orthogonalEdgeStyle;rounded=0;orthogonalLoop=1;jettySize=auto;html=1;" edge="1" parent="1" source="I4t6TPSB9CoR-OkR94B3-3" target="I4t6TPSB9CoR-OkR94B3-5">
          <mxGeometry relative="1" as="geometry">
            <mxPoint x="390" y="-730" as="targetPoint" />
          </mxGeometry>
        </mxCell>
        <mxCell id="I4t6TPSB9CoR-OkR94B3-22" style="edgeStyle=orthogonalEdgeStyle;rounded=0;orthogonalLoop=1;jettySize=auto;html=1;" edge="1" parent="1" source="I4t6TPSB9CoR-OkR94B3-3">
          <mxGeometry relative="1" as="geometry">
            <mxPoint x="510" y="-960" as="targetPoint" />
          </mxGeometry>
        </mxCell>
        <mxCell id="I4t6TPSB9CoR-OkR94B3-3" value="tìm kiếm món đồ" style="rounded=0;whiteSpace=wrap;html=1;" vertex="1" parent="1">
          <mxGeometry x="305" y="-880" width="170" height="100" as="geometry" />
        </mxCell>
        <mxCell id="I4t6TPSB9CoR-OkR94B3-7" style="edgeStyle=orthogonalEdgeStyle;rounded=0;orthogonalLoop=1;jettySize=auto;html=1;" edge="1" parent="1" source="I4t6TPSB9CoR-OkR94B3-5">
          <mxGeometry relative="1" as="geometry">
            <mxPoint x="220" y="-685" as="targetPoint" />
          </mxGeometry>
        </mxCell>
        <mxCell id="I4t6TPSB9CoR-OkR94B3-8" value="có" style="edgeLabel;html=1;align=center;verticalAlign=middle;resizable=0;points=[];" vertex="1" connectable="0" parent="I4t6TPSB9CoR-OkR94B3-7">
          <mxGeometry x="0.0876" y="3" relative="1" as="geometry">
            <mxPoint as="offset" />
          </mxGeometry>
        </mxCell>
        <mxCell id="I4t6TPSB9CoR-OkR94B3-12" style="edgeStyle=orthogonalEdgeStyle;rounded=0;orthogonalLoop=1;jettySize=auto;html=1;" edge="1" parent="1" source="I4t6TPSB9CoR-OkR94B3-5">
          <mxGeometry relative="1" as="geometry">
            <mxPoint x="560" y="-685" as="targetPoint" />
          </mxGeometry>
        </mxCell>
        <mxCell id="I4t6TPSB9CoR-OkR94B3-13" value="không" style="edgeLabel;html=1;align=center;verticalAlign=middle;resizable=0;points=[];" vertex="1" connectable="0" parent="I4t6TPSB9CoR-OkR94B3-12">
          <mxGeometry x="-0.0787" y="4" relative="1" as="geometry">
            <mxPoint as="offset" />
          </mxGeometry>
        </mxCell>
        <mxCell id="I4t6TPSB9CoR-OkR94B3-5" value="kiểm tra món&lt;div&gt;đồ có hay&lt;/div&gt;&lt;div&gt;không&lt;/div&gt;" style="rhombus;whiteSpace=wrap;html=1;" vertex="1" parent="1">
          <mxGeometry x="325" y="-740" width="130" height="110" as="geometry" />
        </mxCell>
        <mxCell id="I4t6TPSB9CoR-OkR94B3-39" style="edgeStyle=orthogonalEdgeStyle;rounded=0;orthogonalLoop=1;jettySize=auto;html=1;" edge="1" parent="1" source="I4t6TPSB9CoR-OkR94B3-10" target="I4t6TPSB9CoR-OkR94B3-40">
          <mxGeometry relative="1" as="geometry">
            <mxPoint x="160" y="-590" as="targetPoint" />
          </mxGeometry>
        </mxCell>
        <mxCell id="I4t6TPSB9CoR-OkR94B3-10" value="thanh toán" style="rounded=0;whiteSpace=wrap;html=1;" vertex="1" parent="1">
          <mxGeometry x="100" y="-715" width="120" height="60" as="geometry" />
        </mxCell>
        <mxCell id="I4t6TPSB9CoR-OkR94B3-14" style="edgeStyle=orthogonalEdgeStyle;rounded=0;orthogonalLoop=1;jettySize=auto;html=1;" edge="1" parent="1" source="I4t6TPSB9CoR-OkR94B3-11" target="I4t6TPSB9CoR-OkR94B3-15">
          <mxGeometry relative="1" as="geometry">
            <mxPoint x="620" y="-800" as="targetPoint" />
          </mxGeometry>
        </mxCell>
        <mxCell id="I4t6TPSB9CoR-OkR94B3-11" value="hỏi nhân viên hoặc rời đi" style="rounded=0;whiteSpace=wrap;html=1;" vertex="1" parent="1">
          <mxGeometry x="560" y="-720" width="120" height="65" as="geometry" />
        </mxCell>
        <mxCell id="I4t6TPSB9CoR-OkR94B3-16" style="edgeStyle=orthogonalEdgeStyle;rounded=0;orthogonalLoop=1;jettySize=auto;html=1;" edge="1" parent="1" source="I4t6TPSB9CoR-OkR94B3-15" target="I4t6TPSB9CoR-OkR94B3-17">
          <mxGeometry relative="1" as="geometry">
            <mxPoint x="730" y="-850" as="targetPoint" />
          </mxGeometry>
        </mxCell>
        <mxCell id="I4t6TPSB9CoR-OkR94B3-15" value="hỏi nhân viên" style="rounded=0;whiteSpace=wrap;html=1;" vertex="1" parent="1">
          <mxGeometry x="560" y="-880" width="120" height="60" as="geometry" />
        </mxCell>
        <mxCell id="I4t6TPSB9CoR-OkR94B3-23" style="edgeStyle=orthogonalEdgeStyle;rounded=0;orthogonalLoop=1;jettySize=auto;html=1;exitX=0.5;exitY=0;exitDx=0;exitDy=0;" edge="1" parent="1" source="I4t6TPSB9CoR-OkR94B3-17">
          <mxGeometry relative="1" as="geometry">
            <mxPoint x="790" y="-960" as="targetPoint" />
          </mxGeometry>
        </mxCell>
        <mxCell id="I4t6TPSB9CoR-OkR94B3-17" value="nhân viên cho&lt;div&gt;&amp;nbsp;biết có món&amp;nbsp;&lt;/div&gt;&lt;div&gt;đòo&lt;div&gt;hay không&lt;/div&gt;&lt;/div&gt;" style="rhombus;whiteSpace=wrap;html=1;" vertex="1" parent="1">
          <mxGeometry x="740" y="-920" width="100" height="140" as="geometry" />
        </mxCell>
        <mxCell id="I4t6TPSB9CoR-OkR94B3-27" value="" style="endArrow=classic;html=1;rounded=0;" edge="1" parent="1">
          <mxGeometry relative="1" as="geometry">
            <mxPoint x="370" y="-770" as="sourcePoint" />
            <mxPoint x="470" y="-770" as="targetPoint" />
          </mxGeometry>
        </mxCell>
        <mxCell id="I4t6TPSB9CoR-OkR94B3-28" value="Label" style="edgeLabel;resizable=0;html=1;;align=center;verticalAlign=middle;" connectable="0" vertex="1" parent="I4t6TPSB9CoR-OkR94B3-27">
          <mxGeometry relative="1" as="geometry" />
        </mxCell>
        <mxCell id="I4t6TPSB9CoR-OkR94B3-29" value="" style="endArrow=classic;html=1;rounded=0;" edge="1" parent="1">
          <mxGeometry relative="1" as="geometry">
            <mxPoint x="340" y="-770" as="sourcePoint" />
            <mxPoint x="500" y="-770" as="targetPoint" />
          </mxGeometry>
        </mxCell>
        <mxCell id="I4t6TPSB9CoR-OkR94B3-30" value="Label" style="edgeLabel;resizable=0;html=1;;align=center;verticalAlign=middle;" connectable="0" vertex="1" parent="I4t6TPSB9CoR-OkR94B3-29">
          <mxGeometry relative="1" as="geometry" />
        </mxCell>
        <mxCell id="I4t6TPSB9CoR-OkR94B3-31" value="Source" style="edgeLabel;resizable=0;html=1;;align=left;verticalAlign=bottom;" connectable="0" vertex="1" parent="I4t6TPSB9CoR-OkR94B3-29">
          <mxGeometry x="-1" relative="1" as="geometry" />
        </mxCell>
        <mxCell id="I4t6TPSB9CoR-OkR94B3-32" value="" style="endArrow=classic;html=1;rounded=0;" edge="1" parent="1">
          <mxGeometry relative="1" as="geometry">
            <mxPoint x="340" y="-770" as="sourcePoint" />
            <mxPoint x="500" y="-770" as="targetPoint" />
          </mxGeometry>
        </mxCell>
        <mxCell id="I4t6TPSB9CoR-OkR94B3-33" value="Label" style="edgeLabel;resizable=0;html=1;;align=center;verticalAlign=middle;" connectable="0" vertex="1" parent="I4t6TPSB9CoR-OkR94B3-32">
          <mxGeometry relative="1" as="geometry" />
        </mxCell>
        <mxCell id="I4t6TPSB9CoR-OkR94B3-34" value="Source" style="edgeLabel;resizable=0;html=1;;align=left;verticalAlign=bottom;" connectable="0" vertex="1" parent="I4t6TPSB9CoR-OkR94B3-32">
          <mxGeometry x="-1" relative="1" as="geometry" />
        </mxCell>
        <mxCell id="I4t6TPSB9CoR-OkR94B3-35" value="" style="endArrow=classic;html=1;rounded=0;" edge="1" parent="1">
          <mxGeometry relative="1" as="geometry">
            <mxPoint x="510" y="-960" as="sourcePoint" />
            <mxPoint x="790" y="-960" as="targetPoint" />
          </mxGeometry>
        </mxCell>
        <mxCell id="I4t6TPSB9CoR-OkR94B3-36" value="" style="shape=message;html=1;outlineConnect=0;" vertex="1" parent="I4t6TPSB9CoR-OkR94B3-35">
          <mxGeometry width="20" height="14" relative="1" as="geometry">
            <mxPoint x="-10" y="-7" as="offset" />
          </mxGeometry>
        </mxCell>
        <mxCell id="I4t6TPSB9CoR-OkR94B3-37" style="edgeStyle=orthogonalEdgeStyle;rounded=0;orthogonalLoop=1;jettySize=auto;html=1;exitX=1;exitY=0.7;exitDx=0;exitDy=0;entryX=0.85;entryY=0.95;entryDx=0;entryDy=0;entryPerimeter=0;" edge="1" parent="I4t6TPSB9CoR-OkR94B3-35" source="I4t6TPSB9CoR-OkR94B3-36" target="I4t6TPSB9CoR-OkR94B3-36">
          <mxGeometry relative="1" as="geometry" />
        </mxCell>
        <mxCell id="I4t6TPSB9CoR-OkR94B3-38" value="có&lt;div&gt;&lt;br&gt;&lt;/div&gt;" style="edgeLabel;html=1;align=center;verticalAlign=middle;resizable=0;points=[];" vertex="1" connectable="0" parent="I4t6TPSB9CoR-OkR94B3-35">
          <mxGeometry x="0.0986" y="-1" relative="1" as="geometry">
            <mxPoint as="offset" />
          </mxGeometry>
        </mxCell>
        <mxCell id="I4t6TPSB9CoR-OkR94B3-41" style="edgeStyle=orthogonalEdgeStyle;rounded=0;orthogonalLoop=1;jettySize=auto;html=1;" edge="1" parent="1" source="I4t6TPSB9CoR-OkR94B3-40" target="I4t6TPSB9CoR-OkR94B3-42">
          <mxGeometry relative="1" as="geometry">
            <mxPoint x="160" y="-490" as="targetPoint" />
          </mxGeometry>
        </mxCell>
        <mxCell id="I4t6TPSB9CoR-OkR94B3-40" value="mua món đồ" style="rounded=0;whiteSpace=wrap;html=1;" vertex="1" parent="1">
          <mxGeometry x="100" y="-620" width="120" height="60" as="geometry" />
        </mxCell>
        <mxCell id="I4t6TPSB9CoR-OkR94B3-42" value="end&amp;nbsp;&lt;div&gt;&lt;br&gt;&lt;/div&gt;" style="ellipse;whiteSpace=wrap;html=1;" vertex="1" parent="1">
          <mxGeometry x="85" y="-520" width="150" height="110" as="geometry" />
        </mxCell>
      </root>
    </mxGraphModel>
  </diagram>
</mxfile>
